<svg xmlns="http://www.w3.org/2000/svg" viewBox="0 0 9.6 6.8">
  <defs>
    <style>
      .cls-1 {
        fill: #aeafbe;
      }
    </style>
  </defs>
  <g id="noun_Eye_435603" transform="translate(267.2 100.162)">
    <path id="Tracé_3" data-name="Tracé 3" class="cls-1" d="M6.3,16.5c-2.808,0-4.8,2.578-4.8,3.4s1.992,3.4,4.8,3.4,4.8-2.578,4.8-3.4S9.108,16.5,6.3,16.5Zm0,6a4.745,4.745,0,0,1-4-2.6,4.731,4.731,0,0,1,4-2.6,4.746,4.746,0,0,1,4,2.6A4.731,4.731,0,0,1,6.3,22.5Zm0-4.6a2,2,0,1,0,2,2A2,2,0,0,0,6.3,17.9Zm0,3.2a1.2,1.2,0,1,1,1.2-1.2A1.2,1.2,0,0,1,6.3,21.1Z" transform="translate(-268.7 -116.663)"/>
  </g>
</svg>
