<svg xmlns="http://www.w3.org/2000/svg" viewBox="0 0 548.3 59.778">
  <defs>
    <style>
      .cls-1 {
        fill: #fff;
      }
    </style>
  </defs>
  <g id="noun_kicker_1178306" transform="translate(64)">
    <g id="Groupe_1" data-name="Groupe 1" transform="translate(26)">
      <path id="Tracé_1" data-name="Tracé 1" class="cls-1" d="M126.051,23.247V21.587a5,5,0,0,0-3.321-4.649,11.651,11.651,0,0,0,1.661-2.657l1.661-5.314V8.3a8.222,8.222,0,0,0-8.3-8.3h-3.321a8.222,8.222,0,0,0-8.3,8.3l1.993,5.646a5.968,5.968,0,0,0,1.328,2.989,5,5,0,0,0-3.321,4.649v1.661H-130V33.21H105.793l3.653,26.568H122.4l3.653-26.568H418.3V23.247ZM114.427,3.321h3.321A4.825,4.825,0,0,1,122.73,7.97l-1.661,4.982a4.988,4.988,0,0,1-4.982,3.653h0a4.988,4.988,0,0,1-4.982-3.653L109.446,7.97A4.825,4.825,0,0,1,114.427,3.321Zm-4.982,18.266a1.569,1.569,0,0,1,1.661-1.661h9.963a1.569,1.569,0,0,1,1.661,1.661V31.55a1.569,1.569,0,0,1-1.661,1.661h-9.963a1.569,1.569,0,0,1-1.661-1.661Zm-236.125,8.3V26.568h232.8v3.321Zm246.42,26.568h-7.306l-2.989-19.926H122.4ZM414.979,29.889H126.051V26.568H414.979Z" transform="translate(40)"/>
      <path id="Tracé_2" data-name="Tracé 2" class="cls-1" d="M21.3,13a8.3,8.3,0,1,0,8.3,8.3A8.222,8.222,0,0,0,21.3,13Zm0,13.284A5.108,5.108,0,0,1,16.321,21.3,5.108,5.108,0,0,1,21.3,16.321,5.108,5.108,0,0,1,26.284,21.3,5.108,5.108,0,0,1,21.3,26.284Z" transform="translate(163.014 30.173)"/>
    </g>
  </g>
</svg>
